<svg xmlns="http://www.w3.org/2000/svg" version="1.1" xmlns:xlink="http://www.w3.org/1999/xlink" xmlns:svgjs="http://svgjs.com/svgjs" width="1440" height="560" preserveAspectRatio="none" viewBox="0 0 1440 560"><g mask="url(&quot;#SvgjsMask1122&quot;)" fill="none"><rect width="1440" height="560" x="0" y="0" fill="url(#SvgjsLinearGradient1123)"></rect><path d="M-80.76 359.09L-80.76 359.09" stroke="#132e65" stroke-width="1.5"></path><path d="M-80.76 359.09L55.09 409.18" stroke="#132e65" stroke-width="1.5"></path><path d="M-80.76 359.09L-62.92 534.54" stroke="#132e65" stroke-width="1.5"></path><path d="M-80.76 359.09L112.31 506.98" stroke="#132e65" stroke-width="1.5"></path><path d="M-80.76 359.09L207.19 366.02" stroke="#132e65" stroke-width="1.5"></path><path d="M-62.92 534.54L-62.92 534.54" stroke="#132e65" stroke-width="1.5"></path><path d="M-62.92 534.54L-42.9 653.48" stroke="#132e65" stroke-width="1.5"></path><path d="M-62.92 534.54L55.09 409.18" stroke="#132e65" stroke-width="1.5"></path><path d="M-62.92 534.54L71.06 643.95" stroke="#132e65" stroke-width="1.5"></path><path d="M-42.9 653.48L-42.9 653.48" stroke="#132e65" stroke-width="1.5"></path><path d="M-42.9 653.48L71.06 643.95" stroke="#132e65" stroke-width="1.5"></path><path d="M-42.9 653.48L112.31 506.98" stroke="#132e65" stroke-width="1.5"></path><path d="M-42.9 653.48L194.88 665.21" stroke="#132e65" stroke-width="1.5"></path><path d="M55.09 409.18L55.09 409.18" stroke="#132e65" stroke-width="1.5"></path><path d="M55.09 409.18L112.31 506.98" stroke="#132e65" stroke-width="1.5"></path><path d="M112.31 506.98L112.31 506.98" stroke="#132e65" stroke-width="1.5"></path><path d="M112.31 506.98L220.34 538.02" stroke="#132e65" stroke-width="1.5"></path><path d="M112.31 506.98L71.06 643.95" stroke="#132e65" stroke-width="1.5"></path><path d="M112.31 506.98L207.19 366.02" stroke="#132e65" stroke-width="1.5"></path><path d="M112.31 506.98L-62.92 534.54" stroke="#132e65" stroke-width="1.5"></path><path d="M71.06 643.95L71.06 643.95" stroke="#132e65" stroke-width="1.5"></path><path d="M71.06 643.95L194.88 665.21" stroke="#132e65" stroke-width="1.5"></path><path d="M207.19 366.02L207.19 366.02" stroke="#132e65" stroke-width="1.5"></path><path d="M207.19 366.02L55.09 409.18" stroke="#132e65" stroke-width="1.5"></path><path d="M207.19 366.02L220.34 538.02" stroke="#132e65" stroke-width="1.5"></path><path d="M207.19 366.02L400.79 390.62" stroke="#132e65" stroke-width="1.5"></path><path d="M207.19 366.02L359.54 508.08" stroke="#132e65" stroke-width="1.5"></path><path d="M220.34 538.02L220.34 538.02" stroke="#132e65" stroke-width="1.5"></path><path d="M220.34 538.02L194.88 665.21" stroke="#132e65" stroke-width="1.5"></path><path d="M220.34 538.02L359.54 508.08" stroke="#132e65" stroke-width="1.5"></path><path d="M220.34 538.02L71.06 643.95" stroke="#132e65" stroke-width="1.5"></path><path d="M194.88 665.21L194.88 665.21" stroke="#132e65" stroke-width="1.5"></path><path d="M194.88 665.21L112.31 506.98" stroke="#132e65" stroke-width="1.5"></path><path d="M194.88 665.21L401.48 679.73" stroke="#132e65" stroke-width="1.5"></path><path d="M194.88 665.21L359.54 508.08" stroke="#132e65" stroke-width="1.5"></path><path d="M400.79 390.62L400.79 390.62" stroke="#132e65" stroke-width="1.5"></path><path d="M400.79 390.62L359.54 508.08" stroke="#132e65" stroke-width="1.5"></path><path d="M400.79 390.62L543.09 523.18" stroke="#132e65" stroke-width="1.5"></path><path d="M400.79 390.62L220.34 538.02" stroke="#132e65" stroke-width="1.5"></path><path d="M359.54 508.08L359.54 508.08" stroke="#132e65" stroke-width="1.5"></path><path d="M359.54 508.08L401.48 679.73" stroke="#132e65" stroke-width="1.5"></path><path d="M359.54 508.08L543.09 523.18" stroke="#132e65" stroke-width="1.5"></path><path d="M401.48 679.73L401.48 679.73" stroke="#132e65" stroke-width="1.5"></path><path d="M401.48 679.73L518.37 665.74" stroke="#132e65" stroke-width="1.5"></path><path d="M543.09 523.18L543.09 523.18" stroke="#132e65" stroke-width="1.5"></path><path d="M543.09 523.18L518.37 665.74" stroke="#132e65" stroke-width="1.5"></path><path d="M543.09 523.18L699.31 488.87" stroke="#132e65" stroke-width="1.5"></path><path d="M518.37 665.74L518.37 665.74" stroke="#132e65" stroke-width="1.5"></path><path d="M669.4 253.25L669.4 253.25" stroke="#132e65" stroke-width="1.5"></path><path d="M669.4 253.25L798.62 222.09" stroke="#132e65" stroke-width="1.5"></path><path d="M669.4 253.25L688.95 394.14" stroke="#132e65" stroke-width="1.5"></path><path d="M669.4 253.25L809.85 381.38" stroke="#132e65" stroke-width="1.5"></path><path d="M669.4 253.25L699.31 488.87" stroke="#132e65" stroke-width="1.5"></path><path d="M688.95 394.14L688.95 394.14" stroke="#132e65" stroke-width="1.5"></path><path d="M688.95 394.14L699.31 488.87" stroke="#132e65" stroke-width="1.5"></path><path d="M688.95 394.14L809.85 381.38" stroke="#132e65" stroke-width="1.5"></path><path d="M688.95 394.14L543.09 523.18" stroke="#132e65" stroke-width="1.5"></path><path d="M688.95 394.14L861.7 500.19" stroke="#132e65" stroke-width="1.5"></path><path d="M688.95 394.14L798.62 222.09" stroke="#132e65" stroke-width="1.5"></path><path d="M699.31 488.87L699.31 488.87" stroke="#132e65" stroke-width="1.5"></path><path d="M699.31 488.87L809.85 381.38" stroke="#132e65" stroke-width="1.5"></path><path d="M699.31 488.87L861.7 500.19" stroke="#132e65" stroke-width="1.5"></path><path d="M699.4 695.76L699.4 695.76" stroke="#132e65" stroke-width="1.5"></path><path d="M699.4 695.76L518.37 665.74" stroke="#132e65" stroke-width="1.5"></path><path d="M699.4 695.76L699.31 488.87" stroke="#132e65" stroke-width="1.5"></path><path d="M699.4 695.76L543.09 523.18" stroke="#132e65" stroke-width="1.5"></path><path d="M699.4 695.76L861.7 500.19" stroke="#132e65" stroke-width="1.5"></path><path d="M798.62 222.09L798.62 222.09" stroke="#132e65" stroke-width="1.5"></path><path d="M798.62 222.09L955.75 242.38" stroke="#132e65" stroke-width="1.5"></path><path d="M798.62 222.09L809.85 381.38" stroke="#132e65" stroke-width="1.5"></path><path d="M809.85 381.38L809.85 381.38" stroke="#132e65" stroke-width="1.5"></path><path d="M809.85 381.38L861.7 500.19" stroke="#132e65" stroke-width="1.5"></path><path d="M861.7 500.19L861.7 500.19" stroke="#132e65" stroke-width="1.5"></path><path d="M861.7 500.19L938.69 404.56" stroke="#132e65" stroke-width="1.5"></path><path d="M861.7 500.19L997.94 504.17" stroke="#132e65" stroke-width="1.5"></path><path d="M977.99 -103.89L977.99 -103.89" stroke="#132e65" stroke-width="1.5"></path><path d="M977.99 -103.89L1092.55 -74.95" stroke="#132e65" stroke-width="1.5"></path><path d="M977.99 -103.89L959.3 81.77" stroke="#132e65" stroke-width="1.5"></path><path d="M977.99 -103.89L1095.78 105.68" stroke="#132e65" stroke-width="1.5"></path><path d="M977.99 -103.89L1293.04 -41.18" stroke="#132e65" stroke-width="1.5"></path><path d="M959.3 81.77L959.3 81.77" stroke="#132e65" stroke-width="1.5"></path><path d="M959.3 81.77L1095.78 105.68" stroke="#132e65" stroke-width="1.5"></path><path d="M959.3 81.77L955.75 242.38" stroke="#132e65" stroke-width="1.5"></path><path d="M959.3 81.77L1092.55 -74.95" stroke="#132e65" stroke-width="1.5"></path><path d="M959.3 81.77L798.62 222.09" stroke="#132e65" stroke-width="1.5"></path><path d="M955.75 242.38L955.75 242.38" stroke="#132e65" stroke-width="1.5"></path><path d="M955.75 242.38L938.69 404.56" stroke="#132e65" stroke-width="1.5"></path><path d="M955.75 242.38L1095.78 105.68" stroke="#132e65" stroke-width="1.5"></path><path d="M955.75 242.38L809.85 381.38" stroke="#132e65" stroke-width="1.5"></path><path d="M938.69 404.56L938.69 404.56" stroke="#132e65" stroke-width="1.5"></path><path d="M938.69 404.56L997.94 504.17" stroke="#132e65" stroke-width="1.5"></path><path d="M938.69 404.56L809.85 381.38" stroke="#132e65" stroke-width="1.5"></path><path d="M938.69 404.56L1129.35 365.01" stroke="#132e65" stroke-width="1.5"></path><path d="M997.94 504.17L997.94 504.17" stroke="#132e65" stroke-width="1.5"></path><path d="M997.94 504.17L1152.42 503.05" stroke="#132e65" stroke-width="1.5"></path><path d="M982.22 674.94L982.22 674.94" stroke="#132e65" stroke-width="1.5"></path><path d="M982.22 674.94L1122.47 666.72" stroke="#132e65" stroke-width="1.5"></path><path d="M982.22 674.94L997.94 504.17" stroke="#132e65" stroke-width="1.5"></path><path d="M982.22 674.94L861.7 500.19" stroke="#132e65" stroke-width="1.5"></path><path d="M982.22 674.94L1152.42 503.05" stroke="#132e65" stroke-width="1.5"></path><path d="M982.22 674.94L938.69 404.56" stroke="#132e65" stroke-width="1.5"></path><path d="M982.22 674.94L699.4 695.76" stroke="#132e65" stroke-width="1.5"></path><path d="M1092.55 -74.95L1092.55 -74.95" stroke="#132e65" stroke-width="1.5"></path><path d="M1092.55 -74.95L1095.78 105.68" stroke="#132e65" stroke-width="1.5"></path><path d="M1092.55 -74.95L1293.04 -41.18" stroke="#132e65" stroke-width="1.5"></path><path d="M1092.55 -74.95L1263.53 57.4" stroke="#132e65" stroke-width="1.5"></path><path d="M1092.55 -74.95L1388.38 63.67" stroke="#132e65" stroke-width="1.5"></path><path d="M1095.78 105.68L1095.78 105.68" stroke="#132e65" stroke-width="1.5"></path><path d="M1095.78 105.68L1263.53 57.4" stroke="#132e65" stroke-width="1.5"></path><path d="M1095.78 105.68L1256.6 232.55" stroke="#132e65" stroke-width="1.5"></path><path d="M1129.35 365.01L1129.35 365.01" stroke="#132e65" stroke-width="1.5"></path><path d="M1129.35 365.01L1152.42 503.05" stroke="#132e65" stroke-width="1.5"></path><path d="M1129.35 365.01L1302.19 403.72" stroke="#132e65" stroke-width="1.5"></path><path d="M1129.35 365.01L1256.6 232.55" stroke="#132e65" stroke-width="1.5"></path><path d="M1152.42 503.05L1152.42 503.05" stroke="#132e65" stroke-width="1.5"></path><path d="M1152.42 503.05L1290.35 499.2" stroke="#132e65" stroke-width="1.5"></path><path d="M1122.47 666.72L1122.47 666.72" stroke="#132e65" stroke-width="1.5"></path><path d="M1122.47 666.72L1272.14 673.64" stroke="#132e65" stroke-width="1.5"></path><path d="M1293.04 -41.18L1293.04 -41.18" stroke="#132e65" stroke-width="1.5"></path><path d="M1293.04 -41.18L1263.53 57.4" stroke="#132e65" stroke-width="1.5"></path><path d="M1293.04 -41.18L1428.18 -40.93" stroke="#132e65" stroke-width="1.5"></path><path d="M1293.04 -41.18L1388.38 63.67" stroke="#132e65" stroke-width="1.5"></path><path d="M1263.53 57.4L1263.53 57.4" stroke="#132e65" stroke-width="1.5"></path><path d="M1263.53 57.4L1388.38 63.67" stroke="#132e65" stroke-width="1.5"></path><path d="M1263.53 57.4L1256.6 232.55" stroke="#132e65" stroke-width="1.5"></path><path d="M1263.53 57.4L1428.18 -40.93" stroke="#132e65" stroke-width="1.5"></path><path d="M1256.6 232.55L1256.6 232.55" stroke="#132e65" stroke-width="1.5"></path><path d="M1256.6 232.55L1302.19 403.72" stroke="#132e65" stroke-width="1.5"></path><path d="M1256.6 232.55L1453.69 214.75" stroke="#132e65" stroke-width="1.5"></path><path d="M1256.6 232.55L1388.38 63.67" stroke="#132e65" stroke-width="1.5"></path><path d="M1302.19 403.72L1302.19 403.72" stroke="#132e65" stroke-width="1.5"></path><path d="M1302.19 403.72L1290.35 499.2" stroke="#132e65" stroke-width="1.5"></path><path d="M1302.19 403.72L1459.49 401.57" stroke="#132e65" stroke-width="1.5"></path><path d="M1290.35 499.2L1290.35 499.2" stroke="#132e65" stroke-width="1.5"></path><path d="M1290.35 499.2L1272.14 673.64" stroke="#132e65" stroke-width="1.5"></path><path d="M1272.14 673.64L1272.14 673.64" stroke="#132e65" stroke-width="1.5"></path><path d="M1272.14 673.64L1415.58 689.63" stroke="#132e65" stroke-width="1.5"></path><path d="M1428.18 -40.93L1428.18 -40.93" stroke="#132e65" stroke-width="1.5"></path><path d="M1428.18 -40.93L1388.38 63.67" stroke="#132e65" stroke-width="1.5"></path><path d="M1428.18 -40.93L1561.38 -92.11" stroke="#132e65" stroke-width="1.5"></path><path d="M1388.38 63.67L1388.38 63.67" stroke="#132e65" stroke-width="1.5"></path><path d="M1453.69 214.75L1453.69 214.75" stroke="#132e65" stroke-width="1.5"></path><path d="M1453.69 214.75L1548.32 200.76" stroke="#132e65" stroke-width="1.5"></path><path d="M1453.69 214.75L1388.38 63.67" stroke="#132e65" stroke-width="1.5"></path><path d="M1453.69 214.75L1549.01 67.15" stroke="#132e65" stroke-width="1.5"></path><path d="M1459.49 401.57L1459.49 401.57" stroke="#132e65" stroke-width="1.5"></path><path d="M1459.49 401.57L1603.64 371.51" stroke="#132e65" stroke-width="1.5"></path><path d="M1459.49 401.57L1559.26 518.96" stroke="#132e65" stroke-width="1.5"></path><path d="M1459.49 401.57L1453.69 214.75" stroke="#132e65" stroke-width="1.5"></path><path d="M1459.49 401.57L1290.35 499.2" stroke="#132e65" stroke-width="1.5"></path><path d="M1459.49 401.57L1548.32 200.76" stroke="#132e65" stroke-width="1.5"></path><path d="M1415.58 689.63L1415.58 689.63" stroke="#132e65" stroke-width="1.5"></path><path d="M1415.58 689.63L1583.26 679.57" stroke="#132e65" stroke-width="1.5"></path><path d="M1415.58 689.63L1559.26 518.96" stroke="#132e65" stroke-width="1.5"></path><path d="M1415.58 689.63L1290.35 499.2" stroke="#132e65" stroke-width="1.5"></path><path d="M1415.58 689.63L1459.49 401.57" stroke="#132e65" stroke-width="1.5"></path><path d="M1561.38 -92.11L1561.38 -92.11" stroke="#132e65" stroke-width="1.5"></path><path d="M1561.38 -92.11L1549.01 67.15" stroke="#132e65" stroke-width="1.5"></path><path d="M1561.38 -92.11L1388.38 63.67" stroke="#132e65" stroke-width="1.5"></path><path d="M1561.38 -92.11L1293.04 -41.18" stroke="#132e65" stroke-width="1.5"></path><path d="M1561.38 -92.11L1548.32 200.76" stroke="#132e65" stroke-width="1.5"></path><path d="M1561.38 -92.11L1453.69 214.75" stroke="#132e65" stroke-width="1.5"></path><path d="M1549.01 67.15L1549.01 67.15" stroke="#132e65" stroke-width="1.5"></path><path d="M1549.01 67.15L1548.32 200.76" stroke="#132e65" stroke-width="1.5"></path><path d="M1549.01 67.15L1388.38 63.67" stroke="#132e65" stroke-width="1.5"></path><path d="M1549.01 67.15L1428.18 -40.93" stroke="#132e65" stroke-width="1.5"></path><path d="M1548.32 200.76L1548.32 200.76" stroke="#132e65" stroke-width="1.5"></path><path d="M1548.32 200.76L1603.64 371.51" stroke="#132e65" stroke-width="1.5"></path><path d="M1548.32 200.76L1388.38 63.67" stroke="#132e65" stroke-width="1.5"></path><path d="M1548.32 200.76L1428.18 -40.93" stroke="#132e65" stroke-width="1.5"></path><path d="M1603.64 371.51L1603.64 371.51" stroke="#132e65" stroke-width="1.5"></path><path d="M1603.64 371.51L1559.26 518.96" stroke="#132e65" stroke-width="1.5"></path><path d="M1603.64 371.51L1453.69 214.75" stroke="#132e65" stroke-width="1.5"></path><path d="M1603.64 371.51L1302.19 403.72" stroke="#132e65" stroke-width="1.5"></path><path d="M1559.26 518.96L1559.26 518.96" stroke="#132e65" stroke-width="1.5"></path><path d="M1559.26 518.96L1583.26 679.57" stroke="#132e65" stroke-width="1.5"></path><path d="M1583.26 679.57L1583.26 679.57" stroke="#132e65" stroke-width="1.5"></path><circle r="5" cx="-80.76" cy="359.09" fill="#132e65"></circle><circle r="5" cx="-62.92" cy="534.54" fill="#132e65"></circle><circle r="5" cx="-42.9" cy="653.48" fill="#132e65"></circle><circle r="5" cx="55.09" cy="409.18" fill="#132e65"></circle><circle r="5" cx="112.31" cy="506.98" fill="#132e65"></circle><circle r="5" cx="71.06" cy="643.95" fill="#132e65"></circle><circle r="5" cx="207.19" cy="366.02" fill="#132e65"></circle><circle r="5" cx="220.34" cy="538.02" fill="#132e65"></circle><circle r="5" cx="194.88" cy="665.21" fill="#132e65"></circle><circle r="5" cx="400.79" cy="390.62" fill="#132e65"></circle><circle r="5" cx="359.54" cy="508.08" fill="#132e65"></circle><circle r="5" cx="401.48" cy="679.73" fill="#132e65"></circle><circle r="5" cx="543.09" cy="523.18" fill="#132e65"></circle><circle r="5" cx="518.37" cy="665.74" fill="#132e65"></circle><circle r="5" cx="669.4" cy="253.25" fill="#132e65"></circle><circle r="5" cx="688.95" cy="394.14" fill="#132e65"></circle><circle r="5" cx="699.31" cy="488.87" fill="#132e65"></circle><circle r="5" cx="699.4" cy="695.76" fill="#132e65"></circle><circle r="5" cx="798.62" cy="222.09" fill="#132e65"></circle><circle r="5" cx="809.85" cy="381.38" fill="#132e65"></circle><circle r="5" cx="861.7" cy="500.19" fill="#132e65"></circle><circle r="5" cx="977.99" cy="-103.89" fill="#132e65"></circle><circle r="5" cx="959.3" cy="81.77" fill="#132e65"></circle><circle r="5" cx="955.75" cy="242.38" fill="#132e65"></circle><circle r="5" cx="938.69" cy="404.56" fill="#132e65"></circle><circle r="5" cx="997.94" cy="504.17" fill="#132e65"></circle><circle r="5" cx="982.22" cy="674.94" fill="#132e65"></circle><circle r="5" cx="1092.55" cy="-74.95" fill="#132e65"></circle><circle r="5" cx="1095.78" cy="105.68" fill="#132e65"></circle><circle r="5" cx="1129.35" cy="365.01" fill="#132e65"></circle><circle r="5" cx="1152.42" cy="503.05" fill="#132e65"></circle><circle r="5" cx="1122.47" cy="666.72" fill="#132e65"></circle><circle r="5" cx="1293.04" cy="-41.18" fill="#132e65"></circle><circle r="5" cx="1263.53" cy="57.4" fill="#132e65"></circle><circle r="5" cx="1256.6" cy="232.55" fill="#132e65"></circle><circle r="5" cx="1302.19" cy="403.72" fill="#132e65"></circle><circle r="5" cx="1290.35" cy="499.2" fill="#132e65"></circle><circle r="5" cx="1272.14" cy="673.64" fill="#132e65"></circle><circle r="5" cx="1428.18" cy="-40.93" fill="#132e65"></circle><circle r="5" cx="1388.38" cy="63.67" fill="#132e65"></circle><circle r="5" cx="1453.69" cy="214.75" fill="#132e65"></circle><circle r="5" cx="1459.49" cy="401.57" fill="#132e65"></circle><circle r="5" cx="1415.58" cy="689.63" fill="#132e65"></circle><circle r="5" cx="1561.38" cy="-92.11" fill="#132e65"></circle><circle r="5" cx="1549.01" cy="67.15" fill="#132e65"></circle><circle r="5" cx="1548.32" cy="200.76" fill="#132e65"></circle><circle r="5" cx="1603.64" cy="371.51" fill="#132e65"></circle><circle r="5" cx="1559.26" cy="518.96" fill="#132e65"></circle><circle r="5" cx="1583.26" cy="679.57" fill="#132e65"></circle><path d="M217.56 559.59L217.56 559.59" stroke="hsl(228.5, 77.2%, 51.5%)" stroke-width="1.5"></path><path d="M217.56 559.59L197.91 646.51" stroke="hsl(228.5, 77.2%, 51.5%)" stroke-width="1.5"></path><path d="M217.56 559.59L61.17 546.02" stroke="hsl(228.5, 77.2%, 51.5%)" stroke-width="1.5"></path><path d="M217.56 559.59L373.34 522.38" stroke="hsl(228.5, 77.2%, 51.5%)" stroke-width="1.5"></path><path d="M217.56 559.59L79.51 684.29" stroke="hsl(228.5, 77.2%, 51.5%)" stroke-width="1.5"></path><path d="M217.56 559.59L372.07 679.52" stroke="hsl(228.5, 77.2%, 51.5%)" stroke-width="1.5"></path><path d="M372.07 679.52L372.07 679.52" stroke="hsl(228.5, 77.2%, 51.5%)" stroke-width="1.5"></path><path d="M372.07 679.52L373.34 522.38" stroke="hsl(228.5, 77.2%, 51.5%)" stroke-width="1.5"></path><path d="M372.07 679.52L197.91 646.51" stroke="hsl(228.5, 77.2%, 51.5%)" stroke-width="1.5"></path><path d="M372.07 679.52L558.35 644.65" stroke="hsl(228.5, 77.2%, 51.5%)" stroke-width="1.5"></path><path d="M372.07 679.52L501.39 503.09" stroke="hsl(228.5, 77.2%, 51.5%)" stroke-width="1.5"></path><path d="M692.74 404.36L692.74 404.36" stroke="hsl(228.5, 77.2%, 51.5%)" stroke-width="1.5"></path><path d="M692.74 404.36L683.01 534.21" stroke="hsl(228.5, 77.2%, 51.5%)" stroke-width="1.5"></path><path d="M692.74 404.36L796.93 492.71" stroke="hsl(228.5, 77.2%, 51.5%)" stroke-width="1.5"></path><path d="M692.74 404.36L848.36 379.8" stroke="hsl(228.5, 77.2%, 51.5%)" stroke-width="1.5"></path><path d="M692.74 404.36L501.39 503.09" stroke="hsl(228.5, 77.2%, 51.5%)" stroke-width="1.5"></path><path d="M848.36 379.8L848.36 379.8" stroke="hsl(228.5, 77.2%, 51.5%)" stroke-width="1.5"></path><path d="M848.36 379.8L954.72 340.28" stroke="hsl(228.5, 77.2%, 51.5%)" stroke-width="1.5"></path><path d="M848.36 379.8L796.93 492.71" stroke="hsl(228.5, 77.2%, 51.5%)" stroke-width="1.5"></path><path d="M981.5 496.28L981.5 496.28" stroke="hsl(228.5, 77.2%, 51.5%)" stroke-width="1.5"></path><path d="M981.5 496.28L1124.57 552.95" stroke="hsl(228.5, 77.2%, 51.5%)" stroke-width="1.5"></path><path d="M981.5 496.28L954.72 340.28" stroke="hsl(228.5, 77.2%, 51.5%)" stroke-width="1.5"></path><path d="M981.5 496.28L848.36 379.8" stroke="hsl(228.5, 77.2%, 51.5%)" stroke-width="1.5"></path><path d="M981.5 496.28L796.93 492.71" stroke="hsl(228.5, 77.2%, 51.5%)" stroke-width="1.5"></path><path d="M981.5 496.28L1123.77 354.91" stroke="hsl(228.5, 77.2%, 51.5%)" stroke-width="1.5"></path><path d="M-87.13 529.28L-87.13 529.28" stroke="hsl(228.5, 77.2%, 51.5%)" stroke-width="1.5"></path><path d="M-87.13 529.28L-76.15 654.23" stroke="hsl(228.5, 77.2%, 51.5%)" stroke-width="1.5"></path><path d="M-87.13 529.28L61.17 546.02" stroke="hsl(228.5, 77.2%, 51.5%)" stroke-width="1.5"></path><path d="M-87.13 529.28L79.51 684.29" stroke="hsl(228.5, 77.2%, 51.5%)" stroke-width="1.5"></path><path d="M-87.13 529.28L217.56 559.59" stroke="hsl(228.5, 77.2%, 51.5%)" stroke-width="1.5"></path><path d="M-87.13 529.28L197.91 646.51" stroke="hsl(228.5, 77.2%, 51.5%)" stroke-width="1.5"></path><path d="M-76.15 654.23L-76.15 654.23" stroke="hsl(228.5, 77.2%, 51.5%)" stroke-width="1.5"></path><path d="M-76.15 654.23L79.51 684.29" stroke="hsl(228.5, 77.2%, 51.5%)" stroke-width="1.5"></path><path d="M61.17 546.02L61.17 546.02" stroke="hsl(228.5, 77.2%, 51.5%)" stroke-width="1.5"></path><path d="M61.17 546.02L79.51 684.29" stroke="hsl(228.5, 77.2%, 51.5%)" stroke-width="1.5"></path><path d="M79.51 684.29L79.51 684.29" stroke="hsl(228.5, 77.2%, 51.5%)" stroke-width="1.5"></path><path d="M79.51 684.29L197.91 646.51" stroke="hsl(228.5, 77.2%, 51.5%)" stroke-width="1.5"></path><path d="M197.91 646.51L197.91 646.51" stroke="hsl(228.5, 77.2%, 51.5%)" stroke-width="1.5"></path><path d="M373.34 522.38L373.34 522.38" stroke="hsl(228.5, 77.2%, 51.5%)" stroke-width="1.5"></path><path d="M373.34 522.38L501.39 503.09" stroke="hsl(228.5, 77.2%, 51.5%)" stroke-width="1.5"></path><path d="M373.34 522.38L197.91 646.51" stroke="hsl(228.5, 77.2%, 51.5%)" stroke-width="1.5"></path><path d="M373.34 522.38L558.35 644.65" stroke="hsl(228.5, 77.2%, 51.5%)" stroke-width="1.5"></path><path d="M373.34 522.38L683.01 534.21" stroke="hsl(228.5, 77.2%, 51.5%)" stroke-width="1.5"></path><path d="M501.39 503.09L501.39 503.09" stroke="hsl(228.5, 77.2%, 51.5%)" stroke-width="1.5"></path><path d="M501.39 503.09L558.35 644.65" stroke="hsl(228.5, 77.2%, 51.5%)" stroke-width="1.5"></path><path d="M501.39 503.09L683.01 534.21" stroke="hsl(228.5, 77.2%, 51.5%)" stroke-width="1.5"></path><path d="M558.35 644.65L558.35 644.65" stroke="hsl(228.5, 77.2%, 51.5%)" stroke-width="1.5"></path><path d="M558.35 644.65L708.96 658.58" stroke="hsl(228.5, 77.2%, 51.5%)" stroke-width="1.5"></path><path d="M558.35 644.65L683.01 534.21" stroke="hsl(228.5, 77.2%, 51.5%)" stroke-width="1.5"></path><path d="M683.01 534.21L683.01 534.21" stroke="hsl(228.5, 77.2%, 51.5%)" stroke-width="1.5"></path><path d="M683.01 534.21L796.93 492.71" stroke="hsl(228.5, 77.2%, 51.5%)" stroke-width="1.5"></path><path d="M683.01 534.21L708.96 658.58" stroke="hsl(228.5, 77.2%, 51.5%)" stroke-width="1.5"></path><path d="M708.96 658.58L708.96 658.58" stroke="hsl(228.5, 77.2%, 51.5%)" stroke-width="1.5"></path><path d="M708.96 658.58L799.83 711.71" stroke="hsl(228.5, 77.2%, 51.5%)" stroke-width="1.5"></path><path d="M796.93 492.71L796.93 492.71" stroke="hsl(228.5, 77.2%, 51.5%)" stroke-width="1.5"></path><path d="M796.93 492.71L708.96 658.58" stroke="hsl(228.5, 77.2%, 51.5%)" stroke-width="1.5"></path><path d="M796.93 492.71L799.83 711.71" stroke="hsl(228.5, 77.2%, 51.5%)" stroke-width="1.5"></path><path d="M799.83 711.71L799.83 711.71" stroke="hsl(228.5, 77.2%, 51.5%)" stroke-width="1.5"></path><path d="M799.83 711.71L949.81 711.25" stroke="hsl(228.5, 77.2%, 51.5%)" stroke-width="1.5"></path><path d="M799.83 711.71L683.01 534.21" stroke="hsl(228.5, 77.2%, 51.5%)" stroke-width="1.5"></path><path d="M799.83 711.71L558.35 644.65" stroke="hsl(228.5, 77.2%, 51.5%)" stroke-width="1.5"></path><path d="M799.83 711.71L981.5 496.28" stroke="hsl(228.5, 77.2%, 51.5%)" stroke-width="1.5"></path><path d="M963.99 248.41L963.99 248.41" stroke="hsl(228.5, 77.2%, 51.5%)" stroke-width="1.5"></path><path d="M963.99 248.41L954.72 340.28" stroke="hsl(228.5, 77.2%, 51.5%)" stroke-width="1.5"></path><path d="M963.99 248.41L1111.99 223.39" stroke="hsl(228.5, 77.2%, 51.5%)" stroke-width="1.5"></path><path d="M963.99 248.41L848.36 379.8" stroke="hsl(228.5, 77.2%, 51.5%)" stroke-width="1.5"></path><path d="M963.99 248.41L1123.77 354.91" stroke="hsl(228.5, 77.2%, 51.5%)" stroke-width="1.5"></path><path d="M963.99 248.41L981.5 496.28" stroke="hsl(228.5, 77.2%, 51.5%)" stroke-width="1.5"></path><path d="M963.99 248.41L1259.29 236.57" stroke="hsl(228.5, 77.2%, 51.5%)" stroke-width="1.5"></path><path d="M954.72 340.28L954.72 340.28" stroke="hsl(228.5, 77.2%, 51.5%)" stroke-width="1.5"></path><path d="M949.81 711.25L949.81 711.25" stroke="hsl(228.5, 77.2%, 51.5%)" stroke-width="1.5"></path><path d="M949.81 711.25L1152.31 676.84" stroke="hsl(228.5, 77.2%, 51.5%)" stroke-width="1.5"></path><path d="M1111.99 223.39L1111.99 223.39" stroke="hsl(228.5, 77.2%, 51.5%)" stroke-width="1.5"></path><path d="M1111.99 223.39L1123.77 354.91" stroke="hsl(228.5, 77.2%, 51.5%)" stroke-width="1.5"></path><path d="M1111.99 223.39L1259.29 236.57" stroke="hsl(228.5, 77.2%, 51.5%)" stroke-width="1.5"></path><path d="M1123.77 354.91L1123.77 354.91" stroke="hsl(228.5, 77.2%, 51.5%)" stroke-width="1.5"></path><path d="M1123.77 354.91L1285.45 338.77" stroke="hsl(228.5, 77.2%, 51.5%)" stroke-width="1.5"></path><path d="M1123.77 354.91L954.72 340.28" stroke="hsl(228.5, 77.2%, 51.5%)" stroke-width="1.5"></path><path d="M1123.77 354.91L1259.29 236.57" stroke="hsl(228.5, 77.2%, 51.5%)" stroke-width="1.5"></path><path d="M1124.57 552.95L1124.57 552.95" stroke="hsl(228.5, 77.2%, 51.5%)" stroke-width="1.5"></path><path d="M1124.57 552.95L1238.54 521.16" stroke="hsl(228.5, 77.2%, 51.5%)" stroke-width="1.5"></path><path d="M1152.31 676.84L1152.31 676.84" stroke="hsl(228.5, 77.2%, 51.5%)" stroke-width="1.5"></path><path d="M1152.31 676.84L1265.58 691.96" stroke="hsl(228.5, 77.2%, 51.5%)" stroke-width="1.5"></path><path d="M1152.31 676.84L1124.57 552.95" stroke="hsl(228.5, 77.2%, 51.5%)" stroke-width="1.5"></path><path d="M1152.31 676.84L1238.54 521.16" stroke="hsl(228.5, 77.2%, 51.5%)" stroke-width="1.5"></path><path d="M1258.71 -83.9L1258.71 -83.9" stroke="hsl(228.5, 77.2%, 51.5%)" stroke-width="1.5"></path><path d="M1258.71 -83.9L1408.08 -46.38" stroke="hsl(228.5, 77.2%, 51.5%)" stroke-width="1.5"></path><path d="M1258.71 -83.9L1293.04 94.39" stroke="hsl(228.5, 77.2%, 51.5%)" stroke-width="1.5"></path><path d="M1258.71 -83.9L1445.19 92.03" stroke="hsl(228.5, 77.2%, 51.5%)" stroke-width="1.5"></path><path d="M1258.71 -83.9L1259.29 236.57" stroke="hsl(228.5, 77.2%, 51.5%)" stroke-width="1.5"></path><path d="M1258.71 -83.9L1392.83 227.29" stroke="hsl(228.5, 77.2%, 51.5%)" stroke-width="1.5"></path><path d="M1293.04 94.39L1293.04 94.39" stroke="hsl(228.5, 77.2%, 51.5%)" stroke-width="1.5"></path><path d="M1293.04 94.39L1259.29 236.57" stroke="hsl(228.5, 77.2%, 51.5%)" stroke-width="1.5"></path><path d="M1259.29 236.57L1259.29 236.57" stroke="hsl(228.5, 77.2%, 51.5%)" stroke-width="1.5"></path><path d="M1259.29 236.57L1285.45 338.77" stroke="hsl(228.5, 77.2%, 51.5%)" stroke-width="1.5"></path><path d="M1259.29 236.57L1392.83 227.29" stroke="hsl(228.5, 77.2%, 51.5%)" stroke-width="1.5"></path><path d="M1259.29 236.57L1403.44 365.13" stroke="hsl(228.5, 77.2%, 51.5%)" stroke-width="1.5"></path><path d="M1285.45 338.77L1285.45 338.77" stroke="hsl(228.5, 77.2%, 51.5%)" stroke-width="1.5"></path><path d="M1285.45 338.77L1403.44 365.13" stroke="hsl(228.5, 77.2%, 51.5%)" stroke-width="1.5"></path><path d="M1285.45 338.77L1392.83 227.29" stroke="hsl(228.5, 77.2%, 51.5%)" stroke-width="1.5"></path><path d="M1238.54 521.16L1238.54 521.16" stroke="hsl(228.5, 77.2%, 51.5%)" stroke-width="1.5"></path><path d="M1238.54 521.16L1396.11 537.53" stroke="hsl(228.5, 77.2%, 51.5%)" stroke-width="1.5"></path><path d="M1238.54 521.16L1265.58 691.96" stroke="hsl(228.5, 77.2%, 51.5%)" stroke-width="1.5"></path><path d="M1265.58 691.96L1265.58 691.96" stroke="hsl(228.5, 77.2%, 51.5%)" stroke-width="1.5"></path><path d="M1265.58 691.96L1438.44 650.43" stroke="hsl(228.5, 77.2%, 51.5%)" stroke-width="1.5"></path><path d="M1408.08 -46.38L1408.08 -46.38" stroke="hsl(228.5, 77.2%, 51.5%)" stroke-width="1.5"></path><path d="M1408.08 -46.38L1445.19 92.03" stroke="hsl(228.5, 77.2%, 51.5%)" stroke-width="1.5"></path><path d="M1408.08 -46.38L1293.04 94.39" stroke="hsl(228.5, 77.2%, 51.5%)" stroke-width="1.5"></path><path d="M1408.08 -46.38L1574.53 50.1" stroke="hsl(228.5, 77.2%, 51.5%)" stroke-width="1.5"></path><path d="M1408.08 -46.38L1598.96 -75.33" stroke="hsl(228.5, 77.2%, 51.5%)" stroke-width="1.5"></path><path d="M1445.19 92.03L1445.19 92.03" stroke="hsl(228.5, 77.2%, 51.5%)" stroke-width="1.5"></path><path d="M1445.19 92.03L1574.53 50.1" stroke="hsl(228.5, 77.2%, 51.5%)" stroke-width="1.5"></path><path d="M1445.19 92.03L1392.83 227.29" stroke="hsl(228.5, 77.2%, 51.5%)" stroke-width="1.5"></path><path d="M1445.19 92.03L1293.04 94.39" stroke="hsl(228.5, 77.2%, 51.5%)" stroke-width="1.5"></path><path d="M1445.19 92.03L1579.51 258.3" stroke="hsl(228.5, 77.2%, 51.5%)" stroke-width="1.5"></path><path d="M1392.83 227.29L1392.83 227.29" stroke="hsl(228.5, 77.2%, 51.5%)" stroke-width="1.5"></path><path d="M1392.83 227.29L1403.44 365.13" stroke="hsl(228.5, 77.2%, 51.5%)" stroke-width="1.5"></path><path d="M1392.83 227.29L1293.04 94.39" stroke="hsl(228.5, 77.2%, 51.5%)" stroke-width="1.5"></path><path d="M1403.44 365.13L1403.44 365.13" stroke="hsl(228.5, 77.2%, 51.5%)" stroke-width="1.5"></path><path d="M1403.44 365.13L1565.91 361.72" stroke="hsl(228.5, 77.2%, 51.5%)" stroke-width="1.5"></path><path d="M1403.44 365.13L1396.11 537.53" stroke="hsl(228.5, 77.2%, 51.5%)" stroke-width="1.5"></path><path d="M1396.11 537.53L1396.11 537.53" stroke="hsl(228.5, 77.2%, 51.5%)" stroke-width="1.5"></path><path d="M1396.11 537.53L1438.44 650.43" stroke="hsl(228.5, 77.2%, 51.5%)" stroke-width="1.5"></path><path d="M1438.44 650.43L1438.44 650.43" stroke="hsl(228.5, 77.2%, 51.5%)" stroke-width="1.5"></path><path d="M1438.44 650.43L1601.59 710.25" stroke="hsl(228.5, 77.2%, 51.5%)" stroke-width="1.5"></path><path d="M1598.96 -75.33L1598.96 -75.33" stroke="hsl(228.5, 77.2%, 51.5%)" stroke-width="1.5"></path><path d="M1598.96 -75.33L1574.53 50.1" stroke="hsl(228.5, 77.2%, 51.5%)" stroke-width="1.5"></path><path d="M1598.96 -75.33L1445.19 92.03" stroke="hsl(228.5, 77.2%, 51.5%)" stroke-width="1.5"></path><path d="M1598.96 -75.33L1579.51 258.3" stroke="hsl(228.5, 77.2%, 51.5%)" stroke-width="1.5"></path><path d="M1598.96 -75.33L1258.71 -83.9" stroke="hsl(228.5, 77.2%, 51.5%)" stroke-width="1.5"></path><path d="M1574.53 50.1L1574.53 50.1" stroke="hsl(228.5, 77.2%, 51.5%)" stroke-width="1.5"></path><path d="M1574.53 50.1L1579.51 258.3" stroke="hsl(228.5, 77.2%, 51.5%)" stroke-width="1.5"></path><path d="M1574.53 50.1L1392.83 227.29" stroke="hsl(228.5, 77.2%, 51.5%)" stroke-width="1.5"></path><path d="M1579.51 258.3L1579.51 258.3" stroke="hsl(228.5, 77.2%, 51.5%)" stroke-width="1.5"></path><path d="M1579.51 258.3L1565.91 361.72" stroke="hsl(228.5, 77.2%, 51.5%)" stroke-width="1.5"></path><path d="M1579.51 258.3L1392.83 227.29" stroke="hsl(228.5, 77.2%, 51.5%)" stroke-width="1.5"></path><path d="M1579.51 258.3L1403.44 365.13" stroke="hsl(228.5, 77.2%, 51.5%)" stroke-width="1.5"></path><path d="M1565.91 361.72L1565.91 361.72" stroke="hsl(228.5, 77.2%, 51.5%)" stroke-width="1.5"></path><path d="M1588.29 537.97L1588.29 537.97" stroke="hsl(228.5, 77.2%, 51.5%)" stroke-width="1.5"></path><path d="M1588.29 537.97L1601.59 710.25" stroke="hsl(228.5, 77.2%, 51.5%)" stroke-width="1.5"></path><path d="M1588.29 537.97L1565.91 361.72" stroke="hsl(228.5, 77.2%, 51.5%)" stroke-width="1.5"></path><path d="M1588.29 537.97L1438.44 650.43" stroke="hsl(228.5, 77.2%, 51.5%)" stroke-width="1.5"></path><path d="M1588.29 537.97L1396.11 537.53" stroke="hsl(228.5, 77.2%, 51.5%)" stroke-width="1.5"></path><path d="M1601.59 710.25L1601.59 710.25" stroke="hsl(228.5, 77.2%, 51.5%)" stroke-width="1.5"></path><circle r="25" cx="217.56" cy="559.59" fill="url(#SvgjsRadialGradient1124)"></circle><circle r="25" cx="372.07" cy="679.52" fill="url(#SvgjsRadialGradient1124)"></circle><circle r="25" cx="692.74" cy="404.36" fill="url(#SvgjsRadialGradient1124)"></circle><circle r="25" cx="848.36" cy="379.8" fill="url(#SvgjsRadialGradient1124)"></circle><circle r="25" cx="981.5" cy="496.28" fill="url(#SvgjsRadialGradient1124)"></circle><circle r="5" cx="-87.13" cy="529.28" fill="#8b9ad9"></circle><circle r="5" cx="-76.15" cy="654.23" fill="#8b9ad9"></circle><circle r="5" cx="61.17" cy="546.02" fill="#8b9ad9"></circle><circle r="5" cx="79.51" cy="684.29" fill="#8b9ad9"></circle><circle r="5" cx="197.91" cy="646.51" fill="#8b9ad9"></circle><circle r="5" cx="373.34" cy="522.38" fill="#8b9ad9"></circle><circle r="5" cx="501.39" cy="503.09" fill="#8b9ad9"></circle><circle r="5" cx="558.35" cy="644.65" fill="#8b9ad9"></circle><circle r="5" cx="683.01" cy="534.21" fill="#8b9ad9"></circle><circle r="5" cx="708.96" cy="658.58" fill="#8b9ad9"></circle><circle r="5" cx="796.93" cy="492.71" fill="#8b9ad9"></circle><circle r="5" cx="799.83" cy="711.71" fill="#8b9ad9"></circle><circle r="5" cx="963.99" cy="248.41" fill="#8b9ad9"></circle><circle r="5" cx="954.72" cy="340.28" fill="#8b9ad9"></circle><circle r="5" cx="949.81" cy="711.25" fill="#8b9ad9"></circle><circle r="5" cx="1111.99" cy="223.39" fill="#8b9ad9"></circle><circle r="5" cx="1123.77" cy="354.91" fill="#8b9ad9"></circle><circle r="5" cx="1124.57" cy="552.95" fill="#8b9ad9"></circle><circle r="5" cx="1152.31" cy="676.84" fill="#8b9ad9"></circle><circle r="5" cx="1258.71" cy="-83.9" fill="#8b9ad9"></circle><circle r="5" cx="1293.04" cy="94.39" fill="#8b9ad9"></circle><circle r="5" cx="1259.29" cy="236.57" fill="#8b9ad9"></circle><circle r="5" cx="1285.45" cy="338.77" fill="#8b9ad9"></circle><circle r="5" cx="1238.54" cy="521.16" fill="#8b9ad9"></circle><circle r="5" cx="1265.58" cy="691.96" fill="#8b9ad9"></circle><circle r="5" cx="1408.08" cy="-46.38" fill="#8b9ad9"></circle><circle r="5" cx="1445.19" cy="92.03" fill="#8b9ad9"></circle><circle r="5" cx="1392.83" cy="227.29" fill="#8b9ad9"></circle><circle r="5" cx="1403.44" cy="365.13" fill="#8b9ad9"></circle><circle r="5" cx="1396.11" cy="537.53" fill="#8b9ad9"></circle><circle r="5" cx="1438.44" cy="650.43" fill="#8b9ad9"></circle><circle r="5" cx="1598.96" cy="-75.33" fill="#8b9ad9"></circle><circle r="5" cx="1574.53" cy="50.1" fill="#8b9ad9"></circle><circle r="5" cx="1579.51" cy="258.3" fill="#8b9ad9"></circle><circle r="5" cx="1565.91" cy="361.72" fill="#8b9ad9"></circle><circle r="5" cx="1588.29" cy="537.97" fill="#8b9ad9"></circle><circle r="5" cx="1601.59" cy="710.25" fill="#8b9ad9"></circle></g><defs><mask id="SvgjsMask1122"><rect width="1440" height="560" fill="#ffffff"></rect></mask><linearGradient x1="15.28%" y1="-39.29%" x2="84.72%" y2="139.29%" gradientUnits="userSpaceOnUse" id="SvgjsLinearGradient1123"><stop stop-color="#0e2a47" offset="0"></stop><stop stop-color="rgba(19, 36, 57, 1)" offset="1"></stop></linearGradient><radialGradient id="SvgjsRadialGradient1124"><stop stop-color="#ffffff" offset="0.1"></stop><stop stop-color="#1735b3" offset="0.2"></stop><stop stop-color="rgba(23, 53, 179, 0)" offset="1"></stop></radialGradient></defs></svg>